<svg width="22" height="22" viewBox="0 0 22 22" fill="none" xmlns="http://www.w3.org/2000/svg">
<path d="M10.118 19.9973L16.2081 18.3655C16.8582 18.1913 17.1827 18.104 17.4484 17.9314C17.6834 17.7788 17.8839 17.5785 18.0366 17.3435C18.2087 17.0784 18.2956 16.754 18.469 16.1069L20.1032 10.0079C20.2766 9.36082 20.3635 9.03643 20.347 8.72084C20.3323 8.44095 20.2589 8.16707 20.1317 7.91734C19.9885 7.63632 19.7515 7.39936 19.2797 6.92754L14.8152 2.46309C14.3393 1.98717 14.1018 1.74969 13.8196 1.60588C13.5698 1.47863 13.2961 1.40528 13.0162 1.39061C12.6998 1.37403 12.3745 1.4607 11.7244 1.6349L5.6331 3.26705C4.98374 3.44104 4.65931 3.52797 4.3938 3.7004C4.15874 3.85305 3.95838 4.05356 3.80573 4.28862C3.63321 4.55429 3.54606 4.87952 3.37186 5.52965L1.74002 11.6198C1.56582 12.2699 1.47873 12.5949 1.49531 12.9112C1.50998 13.1911 1.58329 13.4648 1.71053 13.7145C1.85434 13.9967 2.09195 14.2346 2.56788 14.7106L7.02616 19.1688C7.50207 19.6448 7.74049 19.8826 8.02273 20.0264C8.27246 20.1536 8.54624 20.227 8.82614 20.2417C9.14247 20.2582 9.46785 20.1715 10.118 19.9973Z" stroke="#108DB5" stroke-width="2" stroke-linecap="round" stroke-linejoin="round"/>
<path d="M8.02327 10.0395C7.59444 11.6399 8.54419 13.2849 10.1446 13.7138C11.745 14.1426 13.39 13.1928 13.8188 11.5925C14.2476 9.99205 13.2979 8.34704 11.6975 7.91822C10.0971 7.48939 8.45209 8.43914 8.02327 10.0395Z" stroke="#108DB5" stroke-width="2" stroke-linecap="round" stroke-linejoin="round"/>
</svg>
