<svg width="21" height="21" viewBox="0 0 21 21" fill="none" xmlns="http://www.w3.org/2000/svg">
<path d="M3.64346 6.8006L3.37183 6.89947C2.46684 7.22886 2.01454 7.39348 1.70746 7.6917C1.43677 7.95458 1.24623 8.28862 1.15736 8.65533C1.05653 9.07135 1.14406 9.5448 1.32019 10.4916L2.35845 16.0731L2.35881 16.0752C2.59624 17.3516 2.71502 17.9901 3.06005 18.3959C3.36298 18.7521 3.78163 18.9907 4.24238 19.0706C4.76741 19.1617 5.37757 18.9396 6.59878 18.4951L16.4139 14.9227C17.6351 14.4782 18.2463 14.2557 18.59 13.8485C18.8915 13.4911 19.0582 13.0395 19.0613 12.5719C19.0648 12.0395 18.7455 11.4743 18.1074 10.3448L18.1054 10.3417L15.313 5.39865C14.8394 4.56013 14.6025 4.14102 14.2578 3.88715C13.954 3.66336 13.5931 3.53002 13.2168 3.50264C12.7899 3.47158 12.3379 3.6361 11.4329 3.96549L11.161 4.06444M3.64346 6.8006L11.161 4.06444M3.64346 6.8006C2.88789 4.72469 3.95824 2.42932 6.03415 1.67375C8.11006 0.918182 10.4054 1.98853 11.161 4.06444" stroke="#B54210" stroke-width="2" stroke-linecap="round" stroke-linejoin="round"/>
</svg>
