<svg width="17" height="20" viewBox="0 0 17 20" fill="none" xmlns="http://www.w3.org/2000/svg">
<path d="M7.83244 5.30904L1.34317 14.5767L2.03776 18.5159L5.97698 17.8213L12.4663 8.55366M7.83244 5.30904L10.1594 1.98583L10.1608 1.98386C10.4811 1.5264 10.6415 1.29727 10.8532 1.18472C11.0396 1.08558 11.2527 1.04801 11.4618 1.0774C11.6991 1.11074 11.928 1.271 12.3848 1.59086L14.4002 3.00211C14.859 3.32334 15.0885 3.48403 15.2012 3.69601C15.3003 3.88247 15.3379 4.09553 15.3085 4.30466C15.2751 4.54223 15.1147 4.77137 14.7939 5.22948L14.7932 5.23047L12.4663 8.55366M7.83244 5.30904L12.4663 8.55366" stroke="#80B510" stroke-width="2" stroke-linecap="round" stroke-linejoin="round"/>
</svg>
