<svg width="21" height="21" viewBox="0 0 21 21" fill="none" xmlns="http://www.w3.org/2000/svg">
<path d="M1.95385 9.89525L6.93482 10.331M1.95385 9.89525C1.52064 14.8469 5.18355 19.2122 10.1352 19.6454M1.95385 9.89525C2.38706 4.9436 6.75235 1.28069 11.704 1.7139M6.93482 10.331L14.9044 11.0283M6.93482 10.331C6.50161 15.2827 7.93447 19.4529 10.1352 19.6454M6.93482 10.331C7.36804 5.37938 9.50327 1.52136 11.704 1.7139M14.9044 11.0283L19.8854 11.4641M14.9044 11.0283C15.3376 6.07663 13.9047 1.90644 11.704 1.7139M14.9044 11.0283C14.4712 15.9799 12.3359 19.8379 10.1352 19.6454M19.8854 11.4641C20.3186 6.5124 16.6557 2.14711 11.704 1.7139M19.8854 11.4641C19.4521 16.4157 15.0868 20.0786 10.1352 19.6454" stroke="#B51091" stroke-width="2" stroke-linecap="round" stroke-linejoin="round"/>
</svg>
